<?xml version="1.0" encoding="UTF-8"?> <svg xmlns="http://www.w3.org/2000/svg" width="309" height="239" viewBox="0 0 309 239" fill="none"> <path d="M265.279 94.8673C265.388 94.4073 265.14 94.2489 264.715 94.361C264.893 94.5427 265.082 94.7088 265.279 94.8673Z" fill="#00AE40" stroke="white" stroke-width="0.3"></path> <path d="M272.164 95.5979C272.028 95.4239 271.835 95.3466 271.599 95.3737C271.789 95.451 271.978 95.5244 272.164 95.5979Z" fill="#00AE40" stroke="white" stroke-width="0.3"></path> <path d="M283.79 146.084C284.88 146.567 287.275 149.269 288.535 147.947C287.774 147.317 284.772 145.117 283.79 146.084Z" fill="#00AE40" stroke="white" stroke-width="0.3"></path> <path d="M290.964 171.127C290.999 171.224 291.038 171.313 291.069 171.41C292.055 171.135 291.181 169.918 290.964 171.127Z" fill="#00AE40" stroke="white" stroke-width="0.3"></path> <path d="M292.434 158.213C293.045 158.132 293.637 158.515 294.236 158.213C293.857 157.599 292.697 157.054 292.086 157.649C292.198 157.838 292.31 158.024 292.434 158.213Z" fill="#00AE40" stroke="white" stroke-width="0.3"></path> <path d="M292.256 156.18C292.453 156.458 292.713 156.57 293.045 156.516C292.995 156.01 292.666 155.867 292.256 156.18Z" fill="#00AE40" stroke="white" stroke-width="0.3"></path> <path d="M293.722 160.355C293.834 159.899 293.641 159.844 293.157 160.188C293.347 160.243 293.532 160.301 293.722 160.355Z" fill="#00AE40" stroke="white" stroke-width="0.3"></path> <path d="M275.556 200.968C275.707 201.1 275.853 201.227 276.008 201.362C276.759 200.578 275.602 200.234 275.556 200.968Z" fill="#00AE40" stroke="white" stroke-width="0.3"></path> <path d="M286.791 188.842C287.356 189.871 287.545 188.444 287.402 188C287.186 188.015 286.981 188.073 286.791 188.166C286.996 188.336 287.193 188.502 287.402 188.672C287.197 188.73 286.988 188.784 286.791 188.842Z" fill="#00AE40" stroke="white" stroke-width="0.3"></path> <path d="M283.225 184.838C283.608 185.035 283.999 185.205 284.409 185.344C283.914 185.615 283.442 185.286 283.225 184.838Z" fill="#00AE40" stroke="white" stroke-width="0.3"></path> <path d="M278.998 195.271C278.828 195.734 278.99 196.013 279.504 195.951C279.605 195.561 279.431 195.213 278.998 195.271Z" fill="#00AE40" stroke="white" stroke-width="0.3"></path> <path d="M229.5 230.639C229.213 231.103 229.778 232.946 229.879 233.461C230.033 234.307 229.987 235.559 230.625 236.22C231.406 237.028 232.721 236.878 233.646 237.434C234.516 237.956 235.893 238.053 236.894 238.029C236.504 236.92 237.962 236.263 238.403 237.009C238.105 236.499 239.989 234.964 240.298 234.674C240.727 234.265 241.292 231.976 240.611 231.706C241.346 231.319 242.077 229.387 241.915 228.602C243.381 229.692 242.518 226.866 242.294 226.321C241.915 225.405 239.285 224.439 240.391 226.514C240.051 226.089 238.329 225.397 239.207 226.572C238.697 225.088 237.13 226.012 236.666 226.685C236.241 225.726 234.586 225.85 233.897 226.406C234.025 226.615 234.156 226.82 234.299 227.029C233.626 227.257 233.209 226.395 232.605 226.576C231.828 226.808 232.207 227.848 232.837 227.987C231.433 228.378 230.525 229.715 229.5 230.639Z" fill="#00AE40" stroke="white" stroke-width="0.3"></path> <path d="M236.999 219.468C237.633 219.344 238.264 219.081 238.693 219.754C239.111 218.579 237.37 218.567 236.999 219.468Z" fill="#00AE40" stroke="white" stroke-width="0.3"></path> <path d="M238.53 217.891C238.074 218.169 238.163 218.359 238.809 218.455C238.72 218.266 238.627 218.076 238.53 217.891Z" fill="#00AE40" stroke="white" stroke-width="0.3"></path> <path d="M245.69 215.463C246.003 215.317 246.169 215.073 246.204 214.733C245.736 214.802 245.736 215.073 245.69 215.463Z" fill="#00AE40" stroke="white" stroke-width="0.3"></path> <path d="M250.381 214.451C250.044 214.559 249.839 214.783 249.754 215.131C250.211 215.154 250.447 214.907 250.381 214.451Z" fill="#00AE40" stroke="white" stroke-width="0.3"></path> <path d="M251.39 215.351C251.448 214.907 251.329 214.516 251.054 214.168C251.104 214.582 251.216 214.976 251.39 215.351Z" fill="#00AE40" stroke="white" stroke-width="0.3"></path> <path d="M253.595 206.326C253.661 206.503 254.496 207.617 254.837 207.288C254.52 206.878 254.168 206.391 253.595 206.326Z" fill="#00AE40" stroke="white" stroke-width="0.3"></path> <path d="M254.442 207.454C254.5 207.798 254.504 207.918 254.898 208.019C254.744 207.833 254.597 207.644 254.442 207.454Z" fill="#00AE40" stroke="white" stroke-width="0.3"></path> <path d="M0.635254 94.245C1.42812 94.2527 1.98896 93.8507 1.82265 93.0042C1.57899 91.8446 1.02206 92.061 1.37401 90.8395C1.66795 89.85 2.49951 90.1979 3.22663 89.9041C4.08138 89.5601 4.42176 88.3503 5.43122 88.3232C5.26878 87.9598 5.2301 87.5849 5.31519 87.1945C5.89921 87.3143 7.07108 87.8825 7.61255 87.3993C8.01479 87.036 8.46336 86.433 9.03577 86.3557C9.63526 86.2707 9.92152 87.8284 10.3276 88.184C11.0199 88.7909 12.3542 87.9676 13.236 88.0449C14.8566 88.1879 14.9726 85.8879 15.1583 84.767C15.3091 83.8393 15.7307 83.4914 16.7401 83.6422C18.0242 83.8316 19.2116 83.8587 20.4493 83.5803C21.0836 83.4373 21.9808 83.677 22.5107 83.1745C23.0908 82.6217 22.9942 81.524 23.5472 80.8746C24.9357 79.2434 27.6585 79.0811 29.2752 77.7591C29.9249 77.2295 30.2576 76.9435 31.0853 76.9203C32.145 76.8932 31.8588 76.5105 31.5339 75.7375C31.124 74.7556 30.7604 73.8937 30.2769 72.9544C29.6426 71.7213 30.9924 71.443 31.8433 71.2266C31.5107 70.9135 31.1278 70.6661 30.714 70.496C31.0582 69.9819 31.6422 69.2089 32.35 69.7036C32.8064 68.6716 31.5533 68.5711 31.4991 67.713C31.4295 66.5881 30.3156 65.8034 29.6929 64.9685C28.8459 63.8205 27.9525 62.6647 27.4613 61.3041C27.1403 60.4074 27.6741 58.9501 26.8193 58.5597C26.0999 58.2312 23.1837 58.5713 23.9998 57.3537C24.4678 56.6618 26.1966 56.4685 26.9701 56.2289C28.3741 55.7882 29.7664 55.6761 31.1859 55.1698C32.5898 54.6634 32.8025 55.3708 33.9667 55.8346C34.8949 56.2057 35.6877 55.2509 36.6121 55.9003C37.6873 56.6463 37.7028 55.4133 37.4824 54.6827C37.1497 53.5888 35.7884 54.2228 35.2392 53.4072C34.7635 52.7114 35.2624 51.3778 35.3204 50.6163C35.4055 49.4722 35.1309 48.2662 35.1386 47.1104C35.1386 46.0127 35.6027 44.8105 35.3861 43.7476C35.1231 42.4642 35.7884 42.1009 36.9216 42.6459C37.8808 43.1098 38.7162 43.5427 39.7682 43.7939C41.1373 44.1148 42.4523 43.6007 43.833 43.7398C44.885 43.8442 45.2525 45.228 46.2233 44.4124C46.9697 43.7823 48.0024 43.6973 48.7063 43.0672C49.9981 41.9154 46.7763 38.7458 46.405 37.505C46.2078 36.8324 46.0608 34.9925 46.7377 34.5209C47.3836 34.0686 48.3311 34.5286 49.0544 34.2078C50.8683 33.396 50.733 32.5534 50.1567 30.8681C49.7776 29.7703 51.0423 29.778 51.7617 29.7626C52.5507 29.7433 53.742 30.3076 55.2272 29.5925C55.6952 30.0177 56.31 30.7599 55.9504 30.8604C54.968 31.1309 56.7393 31.9079 56.9985 32.02C58.298 32.5727 57.1029 33.0404 57.8996 33.4154C59.0097 33.9372 60.5026 33.9604 61.3419 34.9809C62.2779 36.1212 64.846 37.4624 66.2886 37.0527C67.7776 36.6314 69.2396 38.9815 69.9164 37.8258C70.5081 38.0113 72.1132 38.9351 72.7862 39.5845C73.7338 40.4929 74.2057 41.7028 75.1958 42.5648C76.0544 43.3108 77.1798 43.9988 78.0694 45.1043C79.338 46.693 79.2104 45.9856 79.3071 46.8978C79.6204 49.6577 80.8542 49.8317 80.1503 50.8019C79.3574 51.8996 79.4309 53.0245 80.4133 53.9522C81.0824 54.5938 81.9564 55.4906 82.9775 55.7534C84.2345 56.0742 85.4759 56.2443 86.8219 56.4183C88.0789 56.5806 89.4752 56.8241 90.7515 56.9208C91.9698 57.0058 93.1378 56.8203 94.3677 56.8705C96.6535 56.971 98.7266 58.2234 100.506 59.0506C101.121 59.3405 101.728 59.584 101.968 59.7309C103.526 60.6818 104.211 60.9872 105.425 61.4471C106.303 61.7796 107.003 61.6404 107.924 61.768C109.115 61.9264 108.604 62.8773 109.196 63.376C110.221 64.2341 111.002 64.3075 111.784 65.5058C112.41 66.449 113.253 67.3573 113.996 68.2116C114.866 69.2011 116.174 69.7461 117.175 70.581C117.875 71.1647 117.852 71.9919 118.776 72.1195C119.894 72.278 121.186 71.8218 122.47 71.7407C124.404 71.6208 128.032 72.7611 130.929 72.8887C132.344 72.9544 133.748 73.2675 135.175 73.2288C136.544 73.194 137.492 72.3553 138.877 72.4519C140.362 72.5563 141.998 72.9853 143.471 73.1825C144.74 73.3487 145.904 72.8539 147.502 73.6772C148.588 74.2416 149.327 75.2582 150.449 75.6834C152.019 76.2709 153.899 76.5221 155.596 76.9203C158.118 77.5078 160.272 78.5244 163.428 78.2654C164.542 78.1727 164.627 78.5399 165.532 79.1158C166.441 79.7034 168.975 79.5333 168.348 79.6376C167.327 79.8 173.573 76.1317 174.919 75.7568C175.878 75.4901 177.495 74.7943 178.942 74.7054C180.485 74.6088 181.9 74.1759 183.811 74.1913C186.271 74.2068 189.23 74.69 190.927 73.5767C191.887 72.9467 193.468 72.6142 194.199 71.7484C194.907 70.9173 195.043 69.6495 195.596 68.7334C196.079 67.9294 196.841 68.1149 197.661 67.1447C198.005 66.7389 198.419 66.5108 198.829 66.0624C199.046 65.8305 199.394 65.9581 199.459 65.6914C199.835 64.0756 195.766 62.3517 194.78 61.2964C194.083 60.5427 194.942 60.1213 194.532 59.182C193.998 57.976 194.741 56.7468 195.859 56.3796C197.456 55.8578 198.558 57.5006 203.257 58.494C203.884 58.6293 205.505 58.9578 205.609 58.4785C205.837 57.4271 207.179 57.3885 207.647 56.627C208.065 55.9313 208.038 55.0963 208.552 54.4508C209.051 53.8362 210.409 54.4122 211.066 54.4779C212.818 54.6441 214.748 53.5502 215.773 52.0233C216.214 51.3546 214.887 50.7439 215.479 49.4915C215.959 48.4749 215.63 47.5897 218.113 47.8333C218.91 47.9106 219.42 48.1038 219.529 46.9365C219.61 45.9663 220.971 46.7123 221.412 46.6853C221.729 46.6659 222.944 45.7885 223.574 45.6493C224.085 45.5334 224.518 45.5991 225.017 45.657C226.026 46.09 226.579 45.228 226.456 45.4367C226.846 45.4367 227.705 45.9122 228.161 45.9972C228.997 46.1596 229.778 46.318 230.613 46.2369C233.402 45.9547 230.745 43.6161 229.704 42.8972C226.595 40.7519 223.524 39.0588 220.437 37.5668C218.995 36.871 216.767 36.3569 215.889 38.0577C214.694 40.3653 212.946 37.7214 211.147 38.0538C210.494 38.1737 209.283 38.0384 208.672 38.1544C207.879 38.3051 207.767 39.3835 206.7 38.7883C206.023 38.4056 203.575 37.1687 204.201 36.1134C204.549 35.5182 205.021 35.5375 204.557 34.7953C204.097 34.0609 204.085 33.4463 204.101 32.6152C204.155 30.1105 203.892 27.6096 203.698 25.1125C205.559 26.0016 207.605 25.9784 209.403 26.7747C211.449 27.683 211.596 25.874 212.841 24.7337C213.712 23.9413 215.92 24.0998 216.141 23.1721C216.315 22.4222 214.945 22.1903 214.454 21.6724C214.087 21.2974 214.257 20.8606 214.218 20.4199C214.157 19.7242 214.624 19.4072 214.307 18.696C214.11 18.3713 214.083 18.0311 214.226 17.6717C214.505 16.9334 214.087 16.5236 214.087 15.8008C214.087 14.2701 213.344 12.9713 214.802 11.8852C216.431 10.6753 214.191 9.35721 213.603 8.29037C213.081 7.34335 211.84 6.56643 210.73 7.01095C209.736 7.40522 209.26 6.63987 208.668 5.99049C210.277 5.44933 209.774 2.8943 211.662 2.53095C213.913 2.0903 216.086 1.23218 218.399 1.35974C220.704 1.48343 222.623 0.343161 224.87 1.26699C225.682 1.59941 227.287 1.80814 228.068 2.40341C229.186 3.26539 230.679 3.21514 231.924 3.8452C231.542 2.17149 236.813 3.91089 236.593 4.5796C236.415 5.13235 238.755 5.71989 239.331 6.03685C239.776 6.28037 239.486 6.6012 239.88 6.83698C240.499 7.2042 241.025 7.53662 241.628 7.96954C242.8 8.81606 244.448 9.48478 245.024 10.5246C245.496 11.3866 246.297 12.1364 247.093 12.6621C247.828 13.1414 248.285 13.9841 249.398 14.3629C250.543 14.7533 251.1 16.2183 252.017 16.9063C253.046 17.6755 254.136 18.379 255.134 19.1946C255.985 19.8865 256.171 20.8877 256.967 21.6105C257.857 22.4145 258.573 22.1285 258.99 23.3615C259.679 25.3792 262.827 27.1264 264.873 26.7399C265.739 26.5775 266.996 26.4964 267.778 26.9293C269.058 27.6405 270.276 27.7797 271.603 28.3285C270.589 26.5582 273.165 28.8156 273.579 28.8349C274.55 28.8813 275.729 30.2844 276.557 30.7637C277.903 31.5368 279.09 30.9145 280.386 31.4286C280.773 31.5832 280.583 32.5534 280.873 32.9013C281.21 33.3033 281.898 33.5893 282.335 33.8444C283.647 34.5943 283.387 35.4099 283.902 36.5657C284.262 37.3851 286.868 38.8694 287.68 39.2251C288.156 39.4338 288.663 38.9313 289.197 38.9313C289.997 38.9313 290.662 39.4222 291.475 39.3255C292.391 39.2134 295.481 39.3372 295.16 38.2703C294.82 37.1377 296.561 36.2874 297.686 36.411C297.752 36.4188 298.73 36.8401 298.792 36.5618C298.935 35.9124 298.885 35.7307 299.608 35.5413C300.277 35.3674 301.422 34.4745 302.231 34.6484C302.683 34.7451 304.091 35.1161 304.396 35.4408C304.323 36.2023 304.54 36.8285 305.073 37.3735C305.858 38.1737 307.506 39.1246 306.752 40.4658C306.593 40.748 306.032 41.0843 305.793 41.3278C305.193 41.9386 306.087 42.3908 306.326 42.8817C306.512 43.2837 306.408 43.7592 306.5 44.1805C306.659 44.9613 307.371 45.6184 307.316 46.434C307.251 47.4042 309.359 48.9736 307.734 49.4838C308.744 50.2182 307.893 50.5004 307.943 51.3701C307.974 52.0079 308.813 52.4794 308.585 53.1211C308.341 53.8207 307.173 53.3105 307.974 55.0035C308.198 55.4635 308.57 55.9892 308.655 56.5033C308.782 57.3305 304.311 55.9622 303.607 55.8037C303.306 55.7302 301.376 54.8992 301.233 55.162C300.939 55.7496 300.993 56.8087 300.382 57.1643C299.887 57.4503 299.063 57.5663 298.719 57.9606C298.402 58.3355 299.728 59.2284 299.902 59.4062C301.55 61.1031 302.776 63.0899 303.824 65.1888C304.71 66.9476 306.485 68.0801 306.326 70.1558C306.257 71.0642 306.76 71.6015 305.704 71.4469C304.818 71.3155 304.014 71.4585 303.507 72.3823C305.185 72.7689 305.92 74.2841 306.562 75.0494C307.448 76.1163 303.081 73.1129 302.273 71.9069C301.604 70.9057 300.726 70.6197 299.558 70.6932C299.767 71.4121 300.916 73.4685 300.451 74.1681C300.088 74.717 299.032 74.1526 298.541 74.5701C297.818 75.1808 299.133 76.4448 297.551 76.8468C296.135 77.2063 294.642 76.8739 293.234 77.2334C293.973 78.2345 296.692 79.4057 296.379 80.7856C296.209 81.5239 292.964 81.0253 292.209 80.9094C291.509 80.805 290.771 80.6504 290.16 80.287C289.425 79.8618 288.733 78.621 287.769 78.7293C287.271 78.7873 287.182 79.3632 286.578 79.3748C286.625 80.6581 286.729 81.35 286.307 82.5869C286.118 83.1319 286.029 84.0558 285.53 84.4268C285.279 84.6162 284.072 84.6627 284.157 85.0878C284.246 85.6445 283.755 85.5672 283.496 85.973C283.213 86.2397 282.873 86.406 282.486 86.4639C282.142 86.6379 281.802 87.4535 281.604 87.5153C280.382 87.8864 279.427 89.2315 279.442 90.6076C279.458 92.2272 276.979 92.2852 276.078 91.3343C276.205 92.1885 275.014 92.0919 274.492 92.0648C274.716 92.6949 274.144 92.8109 273.676 92.8882C272.701 93.0506 271.989 93.7966 271.224 94.3764C270.473 94.9484 269.947 95.1919 269.854 96.224C269.793 96.9816 268.922 96.912 269.131 97.6465C268.76 97.3875 268.346 97.2754 267.897 97.3102C268.501 98.1219 265.875 100.116 265.279 98.1876C264.977 97.1826 266.919 97.202 267.182 96.9121C267.576 96.4869 267.07 96.1351 267.027 95.7138C266.973 95.1842 267.805 94.9098 268.056 94.5465C266.304 95.3234 265.395 94.129 263.825 93.87C264.107 93.468 264.536 93.1781 265.016 93.0776C264.041 91.5972 264.73 91.8368 265.832 90.7429C266.331 90.2404 266.536 88.7445 266.598 88.0603C266.811 85.5942 262.997 86.116 262.703 83.9398C262.877 85.3739 261.411 84.7438 260.653 84.4771C259.686 84.1331 257.633 85.2154 259.091 85.8029C257.981 86.0233 257.323 87.7356 257.408 88.7831C257.49 89.649 254.937 90.5999 254.349 90.9942C253.784 91.373 253.258 91.6512 252.937 92.289C252.411 93.3288 253.436 93.8468 253.185 94.6469C252.593 96.5409 250.996 95.9071 249.573 96.769C248.606 97.3605 247.588 95.8104 246.533 96.0114C244.982 96.3013 245.755 98.8293 246.115 99.7879C246.734 101.462 248.621 102.076 249.971 103.019C250.392 103.317 251.406 103.425 251.889 103.232C252.69 102.919 252.872 104.078 253.56 104.191C253.742 103.796 253.742 103.402 253.56 103.008C254.701 103.008 256.271 104.152 256.813 105.165C257.548 106.556 256.503 107.901 258.019 109.073C259.044 109.857 260.294 110.07 261.539 109.873C262.409 109.73 263.469 109.25 262.471 108.369C262.955 108.087 265.202 106.224 263.546 106.228C264.49 106.405 265.364 105.57 266.219 105.312C267.027 105.068 268.327 105.911 268.814 106.498C269.232 107.012 269.588 106.95 270.172 106.776C270.508 106.676 270.918 107.349 271.088 107.523C271.869 108.315 273.188 107.148 273.985 107.975C274.074 107.735 274.151 107.492 274.213 107.24C275.408 108.083 277.064 107.453 278.216 108.311C278.011 108.419 277.803 108.531 277.601 108.647C278.847 109.656 276.959 109.942 278.139 110.785C278.615 111.121 278.549 111.635 277.93 111.883C276.894 112.292 276.789 111.349 276.364 110.735C276.236 111.028 276.081 111.311 275.907 111.581C275.784 110.731 275.25 110.978 274.778 111.411C274.503 111.658 272.531 113.062 273.652 111.867C273.007 112.277 271.854 113.375 271.135 113.502C270.624 113.595 269.402 112.915 269.704 113.951C270.531 113.22 271.274 114.31 270.775 115.079C270.531 114.484 269.835 114.445 269.704 115.133C269.591 115.721 270.245 116.061 270.129 116.668C270.067 116.942 269.228 117.337 268.973 117.279C268.172 117.089 268.505 116.154 267.832 115.81C268.598 116.904 267.534 115.995 266.934 116.096C266.95 116.83 267.859 117.862 268.628 117.843C267.027 118.087 267.955 120.905 266.033 120.437C266.056 121.202 265.882 122.802 265.488 123.463C264.834 124.557 265.38 125.276 265.693 126.362C266.505 125.589 267.808 126.691 268.454 127.17C269.727 128.113 271.22 128.457 272.643 129.107C273.761 129.617 274.175 131.295 274.832 132.226C275.838 133.637 276.789 135.268 278.081 136.428C278.967 137.228 279.837 138.426 279.918 139.625C280.007 141.055 282.177 141.256 283.206 141.716C284.111 142.118 283.708 142.655 284.153 143.339C284.49 143.869 285.043 143.869 285.565 144.132C286.431 144.564 288.35 145.515 287.766 146.783C286.536 146.447 285.182 145.229 283.852 145.608C282.061 146.122 282.127 144.843 280.595 144.275C279.059 143.703 278.398 145.655 277.106 144.947C276.464 144.599 276.101 144 275.695 143.424C275.192 142.709 274.457 142.748 273.768 142.326C274.117 142.593 274.244 143.057 274.047 143.455C274.356 143.092 274.701 143.072 275.064 143.401C274.848 143.239 274.647 143.072 274.445 142.895C275.126 142.64 276.511 144.441 275.18 143.853C276.097 144.468 277.16 145.828 278.445 145.249C278.963 145.013 278.897 144.518 279.554 144.549C280.123 144.576 280.846 144.827 281.214 145.287C281.442 145.573 281.171 145.921 281.554 146.111C282.177 146.42 282.912 146.513 283.565 146.764C284.965 147.313 286.176 148.577 287.526 149.284C288.272 149.678 289.897 151.232 289.854 152.175C289.827 152.612 288.914 152.446 288.667 152.469C287.704 152.554 287.182 153.343 286.478 153.869C286.002 154.22 285.426 154.402 285.317 155.02C285.267 155.295 285.217 155.964 284.815 155.987C284.138 156.029 283.747 155.368 282.973 155.666C282.32 155.913 281.844 156.501 281.322 156.938C281.689 156.764 283.051 155.635 283.449 155.913C284.2 156.443 284.215 157.865 285.337 157.842C285.101 157.695 284.853 157.564 284.606 157.448C285.944 157.653 286.772 156.064 288.067 156.427C288.957 156.682 289.398 157.409 290.005 158.024C290.724 158.754 292.333 158.913 293.296 159.141C292.635 159.454 292.341 159.956 291.892 160.498C291.734 160.784 291.548 161.046 291.328 161.286C290.987 161.549 290.527 161.41 290.202 161.738C290.31 161.955 290.454 162.144 290.643 162.303C290.995 161.808 291.66 161.12 292.283 161.68C291.958 161.352 292.024 160.455 292.677 160.811C293.401 161.205 292.762 161.816 293.107 162.392C293.114 162.403 293.799 164.305 293.072 163.833C292.662 163.574 292.705 162.894 292.337 162.589C292.43 162.956 292.488 163.331 292.515 163.714C292.032 163.845 291.714 163.54 291.61 163.091C291.819 164.139 291.517 163.474 291.266 163.091C291.173 163.547 290.983 163.961 290.701 164.332C291.432 164.185 292.523 164.877 292.627 165.627C292.287 165.275 292.032 165.31 291.842 165.743C292.434 165.697 293.111 166.528 292.434 166.937C291.595 167.451 290.415 166.446 289.695 166.137C290.075 166.439 290.299 167.077 290.767 167.262C291.424 167.529 291.869 166.995 292.271 167.795C292.465 168.178 293.524 169.148 292.995 169.62C292.519 170.045 291.912 170.018 292.182 170.876C291.448 170.54 291.409 169.554 290.651 169.241C290.438 169.616 290.419 169.693 290.036 169.863C291.154 170.014 289.498 173.338 287.665 171.104C287.913 171.928 289.734 171.769 289.494 172.716C289.289 173.536 288.45 175.02 289.467 175.561C288.895 175.828 288.91 176.199 288.992 176.74C289.162 177.903 288.183 176.682 288.516 177.478C288.133 177.146 287.762 176.806 287.39 176.462C287.371 176.867 289.359 178.275 287.727 177.927C288.017 178.595 287.499 179.206 286.88 179.392C287.557 180.343 288.067 182.036 286.087 181.537C286.683 181.29 286.969 180.671 286.702 180.072C286.439 180.285 286.23 180.547 286.087 180.86C285.704 180.586 285.414 180.188 285.298 179.732C285.058 180.149 284.641 180.401 284.169 180.184C284.459 180.505 284.571 180.884 284.513 181.313C285.437 180.895 286.509 182.511 285.182 182.383C285.244 183.079 286.103 183.454 286.319 182.608C287.011 183.33 286.238 183.3 285.762 183.763C285.271 184.247 285.023 184.907 284.795 185.541C284.188 184.973 283.252 184.652 282.471 184.413C283.082 184.799 283.465 185.87 284.331 185.727C285.194 185.584 285.488 184.683 286.199 185.766C285.627 186.005 285.824 186.952 285.646 187.548C285.344 188.533 286.872 188.568 286.536 189.6C286.354 188.846 286.145 188.846 285.905 189.6C285.553 189.059 285.051 188.599 284.436 188.359C284.397 188.835 284.122 189.252 283.712 189.488C284.118 189.708 285.151 189.851 284.981 190.559C284.737 191.575 283.937 190.11 283.937 191.401C283.813 190.818 283.248 189.813 282.629 190.671C283.411 190.941 282.73 192.097 283.647 192.136C283.442 192.758 282.127 193.717 282.127 192.638C281.5 193.137 281.639 193.268 282.161 193.601C282.807 194.011 282.246 194.988 281.953 195.406C281.62 195.081 281.299 194.741 280.989 194.393C280.796 195.131 279.817 195.603 279.419 194.726C278.99 195.348 277.934 194.958 278.568 195.854C278.143 195.731 277.706 195.707 277.265 195.796C277.663 196.225 278.236 196.388 278.793 196.194C278.684 196.643 278.897 196.906 279.357 196.925C279.191 197.342 278.812 197.339 278.522 197.594C278.069 197.988 278.371 198.738 277.659 199.182C277.903 198.634 277.741 198.425 277.149 198.56C277.381 199.167 276.998 199.708 276.983 200.311C276.925 199.175 275.78 200.369 275.18 200.369C275.056 200.508 274.608 202.476 273.993 201.88C273.451 201.355 273.099 201.08 272.991 202.066C272.879 203.148 272.361 203.403 271.282 203.249C271.928 203.5 272.744 203.485 272.921 204.319C272.194 203.434 272.245 204.814 271.734 204.261C271.502 204.95 271.908 205.827 271.007 206.105C270.411 206.287 269.375 206.519 268.802 206.183C269.646 207.079 266.385 207.535 267.108 206.128C266.613 206.677 265.968 206.449 265.414 206.183C265.523 206.666 266.814 207.304 266.47 207.891C266.261 208.247 265.782 207.949 265.573 207.802C264.919 207.358 264.32 207.427 264.393 206.635C264.041 207.114 262.75 207.899 262.309 207.597C263.303 207.945 262.657 208.707 262.065 208.544C261.353 208.347 261.38 207.497 261.856 207.091C261.187 207.091 260.588 207.439 260.224 207.992C260.974 208.131 260.174 208.9 261.005 209.12C260.839 209.271 260.653 209.379 260.445 209.46C260.081 208.251 257.3 208.355 256.662 209.344C256.581 207.694 254.515 207.261 254.747 205.51C254.515 206.635 254.55 205.962 254.067 205.568C254.446 204.934 255.092 204.83 255.761 204.946C254.887 204.339 254.156 205.568 253.274 205.17C254.531 205.676 253.216 206.646 252.373 206.357C252.69 206.484 253.877 206.925 253.935 207.307C253.808 207.404 253.672 207.412 253.506 207.319C254.21 207.787 255.908 210.044 255.2 211.041C254.45 212.1 252.856 209.035 252.493 208.618C252.438 209.627 253.657 210.531 254.125 211.327C253.711 211.424 253.398 211.745 253.336 212.17C252.926 211.965 252.609 211.579 252.609 211.099C251.576 211.571 252.651 212.734 251.978 213.411C251.212 212.414 250.644 213.218 250.122 213.925C249.774 214.408 248.536 213.38 249.228 212.731C248.737 212.92 248.435 212.684 248.49 212.166C248.397 212.823 248.884 213.5 248.671 214.153C248.416 214.976 246.273 213.48 245.832 213.353C246.854 214.636 245.504 214.045 244.769 214.083C246.049 214.59 244.193 216.507 243.361 215.324C243.23 215.749 242.951 216.175 242.51 216.341C242.932 215.479 241.888 216.005 241.3 216.14C240.592 216.306 239.579 216.538 239.122 217.187C239.246 216.867 239.416 216.561 239.625 216.287C239.153 216.615 238.79 217.18 239.122 217.752C237.9 218.119 238.329 217.249 237.594 216.677C237.3 217.319 238.171 217.74 237.602 218.32C237.2 218.73 236.326 219.143 236.686 219.889C236.887 220.311 237.494 220.334 237.877 220.465C238.414 220.651 238.256 221.853 237.823 220.57C237.904 221.555 239.285 222.073 239.211 223.055C239.091 224.717 236.84 223.901 235.9 224.346C235.951 223.778 235.289 222.866 236.303 223.391C236.094 222.429 234.369 222.622 235.061 221.3C234.268 221.404 234.763 220.272 234.098 220.202C233.676 220.156 233.557 218.579 233.835 218.285C234.392 217.713 233.704 217.311 234.462 216.843C235.633 216.132 233.986 215.722 233.541 215.316C233.638 215.521 233.738 215.73 233.82 215.943C232.946 216.128 232.512 214.833 232.126 214.304C231.847 214.771 232.052 215.212 232.516 215.432C232.191 215.804 231.081 216.766 230.66 215.997C229.967 217.578 229.824 215.189 229.469 214.926C229.059 214.617 227.597 215.27 228.459 214.08C228.254 214.01 228.049 213.952 227.84 213.917C227.786 214.327 227.883 214.702 228.122 215.046C227.434 214.938 227.113 213.635 226.429 213.805C226.742 213.407 226.603 213.02 226.15 212.843C225.968 213.245 225.794 213.817 225.694 213.009C225.547 213.844 226.815 214.358 226.34 215.208C226.111 215.614 225.342 214.667 225.017 214.702C225.237 215.189 225.009 215.645 224.564 215.889C224.541 215.382 223.245 215.139 222.576 214.938C221.157 214.516 220.395 215.931 220.105 214.814C219.915 214.93 219.726 215.042 219.54 215.15C218.991 214.327 218.202 214.443 217.575 213.925C217.262 213.67 217.421 213.492 217.239 213.183C217.065 212.881 216.083 212.301 215.305 212.669C214.826 211.165 214.002 210.033 214.013 208.49C215.348 208.966 214.741 205.591 212.714 206.515C211.89 206.89 211.689 206.291 211.062 205.982C210.316 205.607 209.983 206.31 209.016 205.904C207.342 205.209 206.676 204.466 205.713 203.133C205.3 204.08 204.159 204.188 203.439 204.787C202.979 205.174 203.834 205.935 203.254 206.519C202.782 207.002 199.846 208.432 200.132 206.851C199.107 206.89 198.856 209.271 198.496 209.047C197.978 208.722 197.553 208.2 197.135 207.764C196.245 206.828 196.307 207.841 196.002 208.544C194.911 207.28 194.768 207.014 193.913 208.587C193.124 210.04 192.018 208.494 191.264 207.872C189.643 206.523 189.4 208.455 188.758 209.534C188.359 210.199 187.884 209.468 187.454 209.484C187.153 209.491 186.785 209.542 186.499 209.623C186.116 209.743 186.209 209.101 185.876 209.101C184.399 209.101 185.118 211.954 185.482 212.499C185.896 213.113 186.425 213.705 186.646 214.431C186.808 214.659 186.951 214.895 187.083 215.139C187.141 215.548 186.785 215.912 186.797 216.325C186.816 216.762 187.733 217.682 187.307 218.072C186.754 218.598 186.101 217.408 185.408 217.62C184.337 217.941 184.213 218.022 183.78 216.921C183.405 215.974 182.813 215.058 182.744 214.014C181.784 214.721 180.144 216.708 178.884 215.9C178.284 215.506 178.149 216.41 177.646 216.302C177.124 216.198 176.969 215.057 177.209 214.69C175.236 214.667 176.683 212.734 175.639 212.213C174.486 211.648 173.078 211.722 171.872 211.888C170.321 212.108 171.55 209.87 171.643 209.321C171.786 208.517 170.854 206.229 172.355 206.287C171.953 205.1 171.195 204.988 170.042 204.988C168.518 204.988 168.657 203.755 168.031 202.785C167.977 202.7 167.451 202.112 167.551 201.965C168.077 201.208 166.998 200.686 166.681 200.122C166.132 199.175 167.505 198.769 167.273 197.826C165.904 198.838 164.198 197.551 162.775 198.351C162.45 198.537 160.52 200.06 160.187 199.797C159.499 199.256 160.226 198.691 160.446 198.131C160.671 197.578 160.288 196.701 159.986 196.245C159.518 195.541 159.236 195.634 159.058 194.621C158.923 193.868 159.251 193.319 160.052 193.261C159.441 192.267 159.994 191.486 159.932 190.439C161.263 191.637 161.344 188.541 161.464 188.127C163.405 188.267 162.009 187.439 163.266 186.492C163.463 186.342 164.163 186.736 164.21 186.396C164.299 185.708 163.436 185.205 163.212 184.633C164.372 185.081 163.776 182.994 163.776 182.422C163.776 181.177 163.49 179.728 163.069 178.564C162.732 177.633 162.728 176.605 162.199 175.77C161.796 175.124 161.305 174.413 160.272 173.914C160.501 174.367 160.265 174.714 159.824 174.873C159.418 174.061 158.656 173.242 158.397 172.384C158.168 171.626 158.192 170.977 157.565 170.412C156.521 169.477 154.908 169.11 154.003 168.105C153.93 168.708 153.585 169.786 153.535 170.173C153.508 170.347 153.291 170.47 153.226 170.582C153.055 170.722 153.276 170.358 152.649 169.744C151.972 169.075 151.601 169.809 150.917 169.496C150.294 169.214 149.532 168.661 148.82 168.669C148.167 168.677 147.911 169.516 147.215 169.233C146.709 169.032 147.122 168.31 147.281 168.027C147.525 167.591 148 167.135 148.132 166.655C148.329 165.878 146.902 165.523 147.188 164.552C146.681 164.692 146.155 165.383 145.587 165.252C144.318 164.962 145.734 163.783 146.167 163.59C145.657 163.126 144.968 162.508 144.403 162.102C143.846 161.7 142.203 162.941 141.743 163.261C141.267 163.594 141.499 164.324 141.05 164.63C140.644 164.904 139.909 164.556 139.557 164.406C139.426 164.348 137.747 163.323 138.436 164.15C137.917 163.849 137.121 163.23 136.568 163.08C135.929 162.91 135.438 163.443 134.812 163.81C133.918 164.34 133.439 165.329 132.781 166.091C131.95 167.057 131.134 167.038 129.969 167.243C128.681 167.467 129.188 168.337 128.627 169.133C128.109 169.863 126.841 170.192 126.612 171.058C126.318 172.187 126.311 173.018 124.775 173.072C123.793 173.106 123.066 173.717 122.103 173.586C121.751 173.539 121.159 173.675 120.931 173.547C120.706 173.42 120.849 173.033 120.834 172.639C120.815 171.943 119.047 171.545 118.44 171.56C117.516 171.58 117.81 172.681 116.452 171.773C114.793 171.715 113.876 171.692 113.308 171.402C112.422 170.957 113.284 170.289 112.403 170.026C111.281 169.693 110.333 169.867 109.343 170.528C108.295 171.224 107.661 172.855 107.127 173.976C106.721 174.827 105.681 175.642 105.603 176.578C103.472 174.935 105.039 173.659 104.617 172.453C103.956 170.536 101.855 172.013 100.382 172.117C100.421 172.322 100.463 172.531 100.506 172.735C99.2294 172.368 97.427 172.844 96.0733 172.817C94.8589 172.793 94.0738 172.326 92.9444 171.754C92.546 171.557 91.8808 171.127 91.4089 171.332C90.9912 171.514 91.262 172.19 90.8172 172.272C90.1327 172.395 88.7983 171.421 88.7596 170.714C88.5972 170.845 88.5585 173.164 87.9899 172.202C87.3982 171.224 86.1335 170.644 85.7661 169.531C85.5689 170.443 82.5018 170.061 82.2852 169.257C82.1692 168.828 82.6023 168.066 82.2542 167.714C81.8984 167.347 80.8155 168.174 80.1928 167.799C79.1988 167.204 76.971 166.458 76.5726 165.295C76.0892 163.861 74.6118 162.295 73.1073 163.799C72.5619 164.34 70.8176 162.013 70.5352 161.677C69.7656 160.753 68.2379 160.559 67.0931 159.864C65.3101 158.781 63.7205 157.572 62.185 156.203C61.601 155.681 60.7966 155.759 60.0927 155.531C59.3346 155.287 59.3269 156.253 58.5108 155.936C58.8202 157.989 57.6637 158.248 56.4647 156.938C55.3934 155.763 54.0475 155.214 52.5546 154.808C52.2413 154.723 51.5064 154.63 51.286 154.359C50.9379 153.938 51.576 153.266 50.8335 152.968C50.2649 152.744 49.9787 152.678 49.4837 152.226C48.6366 151.449 48.0798 152.009 47.1747 151.743C45.8095 151.341 45.2563 149.876 44.3513 148.979C43.4347 148.074 42.4368 150.641 41.8528 148.832C41.6517 148.194 41.9031 147.552 41.5241 146.957C41.1335 146.358 40.9826 145.867 40.8666 145.175C40.7467 144.429 39.9925 143.973 39.4819 143.513C38.7239 142.833 38.894 141.789 38.2481 141.051C39.7875 139.907 40.0931 140.742 40.971 141.797C41.4119 142.319 42.0694 142.411 42.4214 141.828C42.8584 141.097 43.6203 141.155 44.0883 140.521C44.6569 139.737 43.8833 138.971 43.4269 138.43C43.0556 137.997 43.2451 136.818 42.7965 136.683C40.9632 136.126 41.0754 136.254 39.7682 134.928C38.2907 133.432 38.105 130.738 38.1592 130.367C38.1862 130.185 40.1395 129.605 38.488 129.076C37.057 128.616 35.9392 127.507 34.5971 126.691C32.7445 125.574 33.3286 122.988 30.2538 121.191C28.4398 121.268 22.9477 120.893 22.8394 118.268C22.2979 118.404 21.5245 119.273 20.9482 118.755C20.4995 118.353 19.2967 117.638 19.0608 117.12C18.8442 116.637 18.9022 115.679 18.7514 115.122C18.5464 114.353 18.1712 113.734 17.5834 113.189C16.7634 112.424 15.3478 112.857 14.8372 112.068C14.2842 111.218 12.478 110.193 11.778 111.442C11.2172 110.081 9.65458 111.083 9.11698 110.089C8.40533 108.783 10.869 109.335 11.221 109.27C12.6984 109.003 12.1145 107.639 11.2791 107.124C10.5752 106.688 10.9077 106.46 10.8845 105.772C10.8729 105.466 10.3431 104.546 10.2 104.218C10.0028 103.754 9.43414 103.704 9.25236 103.186C9.03964 102.579 9.23687 101.929 9.11698 101.311C8.88105 100.167 6.96275 99.8536 6.02291 99.6487C4.77366 99.3743 3.88792 101.044 2.93261 99.8459C2.6232 99.4555 1.32378 97.6813 2.58076 97.6735C2.17853 97.1053 1.62931 96.6724 1.14586 96.1854C0.643063 95.6674 0.840239 94.8286 0.635254 94.245Z" fill="#00AE40" stroke="white" stroke-width="0.5"></path> <path d="M257.602 209.039C258.194 208.834 258.758 208.548 259.234 209.151C259.06 209.317 258.878 209.468 258.669 209.6C258.909 209.395 259.354 209.248 259.632 209.464C260.51 210.145 258.646 209.53 259.404 210.558C258.747 210.419 256.264 209.905 257.602 209.039Z" fill="#00AE40" stroke="white" stroke-width="0.3"></path> <path d="M256.813 211.123C256.778 210.531 257.513 210.396 257.884 210.16C257.962 210.779 257.354 211.146 256.813 211.123Z" fill="#00AE40" stroke="white" stroke-width="0.3"></path> <path d="M258.724 210.558C258.724 210.856 258.878 211.041 259.18 211.123C259.11 210.868 258.96 210.678 258.724 210.558Z" fill="#00AE40" stroke="white" stroke-width="0.3"></path> <path d="M259.594 213.94C261.427 213.94 262.912 212.456 262.912 210.624C262.912 208.792 261.427 207.307 259.594 207.307C257.761 207.307 256.275 208.792 256.275 210.624C256.275 212.456 257.761 213.94 259.594 213.94Z" fill="#00AE40"></path> <path d="M255.061 211.123C255.162 211.057 255.254 211.451 255.177 211.01C255.274 211.227 255.289 211.451 255.231 211.687C255.177 211.498 255.119 211.312 255.061 211.123Z" fill="#00AE40" stroke="white" stroke-width="0.3"></path> <path d="M253.201 215.974C255.033 215.974 256.519 214.489 256.519 212.657C256.519 210.825 255.033 209.341 253.201 209.341C251.368 209.341 249.882 210.825 249.882 212.657C249.882 214.489 251.368 215.974 253.201 215.974Z" fill="#00AE40"></path> </svg> 