<svg xmlns="http://www.w3.org/2000/svg" version="1.2" viewBox="0 0 1563 1564"><path fill="#fe5000" d="M1196.2 268.5c-265.5-19.2-562.3-19.2-828.9 0-55.7 4.2-97.9 46.9-102 99-13.6 167.2-15.6 418.3-3.1 585.5 1.5 14.3 5.6 28.3 12.3 41 6.6 12.8 15.6 24.2 26.5 33.7 10.9 9.4 23.4 16.7 37 21.5 13.6 4.8 28 7 42.3 6.4H586v253.2H380.9c-46.2.6-92-7.6-135.2-23.9-43.1-16.4-82.8-40.7-117-71.8-34.2-31-62.2-68.2-82.7-109.6-20.5-41.4-33-86.2-36.9-132.3q-4.8-77.9-7-155.9Q-.1 737.2.3 659.2q.4-78.1 3.4-156.1t8.5-155.9c3.6-42.9 14.8-84.8 33-123.8s43.3-74.4 73.9-104.6c30.7-30.2 66.5-54.7 105.8-72.4 39.2-17.6 81.3-28.1 124.2-31 278.6-20.3 587.3-20.3 865.3 0 177.1 12.5 322.8 151 337.4 331.8 14.1 180.2 13.6 443.8 0 624-3.8 46.1-16.1 91-36.5 132.4-20.3 41.4-48.2 78.7-82.3 109.8-34.1 31.1-73.7 55.6-116.8 72.1-43.1 16.5-88.9 24.8-135.1 24.3l-203-.5L586 1563v-254.2l392.1-253.2h203c14.4.6 28.8-1.6 42.3-6.4 13.6-4.8 26.2-12.1 37.1-21.5 10.8-9.5 19.8-20.9 26.5-33.7 6.6-12.7 10.8-26.7 12.3-41 12-167.2 12.5-418.3-.5-585.5-4.2-52.1-46.9-94.8-102.6-99z"/></svg>