<svg xmlns="http://www.w3.org/2000/svg"  viewBox="0 0 48 48" width="48px" height="48px"><circle cx="36" cy="36" r="4" fill="#4caf50"/><circle cx="24" cy="26" r="6" fill="#1976d2"/><path fill="#ff3d00" d="M11,33.5V29H6v4.5c0,4.687,3.813,8.5,8.5,8.5H24v-5h-9.5C12.57,37,11,35.43,11,33.5z"/><path fill="#1976d2" d="M34,15H14.5c-1.93,0-3.5,1.57-3.5,3.5V23H6v-4.5c0-4.69,3.81-8.5,8.5-8.5h2.83L20,6h8l2.67,4L34,15 z"/><path fill="#ffc107" d="M42,18.5V26h-5v-7.5c0-1.93-1.57-3.5-3.5-3.5H34l-3.33-5h2.83C38.19,10,42,13.81,42,18.5z"/></svg>