<svg xmlns="http://www.w3.org/2000/svg"  viewBox="0 0 64 64" width="48px" height="48px" baseProfile="basic"><linearGradient id="QOzlCdsmwqZMoMv64ZeP8a" x1="33" x2="33" y1="12" y2="52" gradientUnits="userSpaceOnUse"><stop offset="0" stop-color="#8ab4ff"/><stop offset="1" stop-color="#e492ff"/></linearGradient><path fill="url(#QOzlCdsmwqZMoMv64ZeP8a)" d="M37.87,21.58l-6.34,3.8c-0.69-1.37-1.62-2.61-2.72-3.66l6.62-3.97	C35.9,19.23,36.75,20.55,37.87,21.58z M31.83,37c-0.64,1.44-1.53,2.75-2.6,3.87l9.07,3.58c0.36-1.52,1.03-2.92,1.95-4.12L31.83,37z M47.69,23.2C46.57,23.72,45.31,24,44,24c-0.27,0-0.54-0.01-0.8-0.04l2.51,12.54C46.75,36.18,47.85,36,49,36	c0.42,0,0.84,0.02,1.26,0.08L47.69,23.2z M44,47c0,2.761,2.239,5,5,5s5-2.239,5-5s-2.239-5-5-5S44,44.239,44,47z M44,12	c-1.657,0-3,1.343-3,3s1.343,3,3,3s3-1.343,3-3S45.657,12,44,12z M19.5,24c-4.142,0-7.5,3.358-7.5,7.5s3.358,7.5,7.5,7.5	s7.5-3.358,7.5-7.5S23.642,24,19.5,24z"/><linearGradient id="QOzlCdsmwqZMoMv64ZeP8b" x1="33" x2="33" y1="8" y2="56" gradientUnits="userSpaceOnUse"><stop offset="0" stop-color="#1a6dff"/><stop offset="1" stop-color="#c822ff"/></linearGradient><path fill="url(#QOzlCdsmwqZMoMv64ZeP8b)" d="M49,56c-4.963,0-9-4.038-9-9s4.037-9,9-9s9,4.038,9,9S53.963,56,49,56z M49,40	c-3.859,0-7,3.14-7,7s3.141,7,7,7s7-3.14,7-7S52.859,40,49,40z M19.5,43C13.159,43,8,37.841,8,31.5S13.159,20,19.5,20	S31,25.159,31,31.5S25.841,43,19.5,43z M19.5,22c-5.238,0-9.5,4.262-9.5,9.5s4.262,9.5,9.5,9.5s9.5-4.262,9.5-9.5S24.738,22,19.5,22	z M44,22c-3.859,0-7-3.14-7-7s3.141-7,7-7s7,3.14,7,7S47.859,22,44,22z M44,10c-2.757,0-5,2.243-5,5s2.243,5,5,5s5-2.243,5-5	S46.757,10,44,10z"/></svg>