<svg xmlns="http://www.w3.org/2000/svg"  viewBox="0 0 48 48" width="48px" height="48px" baseProfile="basic"><path fill="#0d47a1" d="M13.279,11.978c-7.335,0-12.819,6.005-13.231,12.694c0.256,1.441,1.095,4.287,2.411,4.141	c1.644-0.183,5.785,0,9.317-6.394C14.355,17.749,19.662,11.978,13.279,11.978z"/><path fill="#1e88e5" d="M11.583,14.475c-2.466,3.904-5.785,9.498-6.905,11.258c-1.332,2.093-4.858,1.204-4.566-1.796	c-0.029,0.243-0.051,0.489-0.066,0.736c-0.482,7.803,5.705,14.284,13.404,14.284c8.485,0,28.722-10.572,26.673-21.165	c-2.159-6.226-8.225-10.693-15.101-10.693C18.146,7.099,13.739,11.06,11.583,14.475z"/><path fill="#4fc3f7" d="M13.325,38.96c0,0,20.26,0.04,23.697,0.04C43.258,39,48,33.909,48,27.967	s-4.837-11.002-10.978-11.002c-6.141,0-9.678,4.594-12.335,9.61C21.575,32.451,17.604,38.89,13.325,38.96z"/></svg>