<svg xmlns="http://www.w3.org/2000/svg"  viewBox="0 0 48 48" width="48px" height="48px" baseProfile="basic"><path fill="#7cb342" d="M0,26.946l0.012-0.249L0.05,26.45l0.061-0.243l0.084-0.237l0.107-0.237l0.129-0.23l0.15-0.224	l0.171-0.221l0.192-0.214l0.211-0.208l0.231-0.205l0.249-0.195l0.267-0.192l0.284-0.182l0.301-0.176l0.317-0.169l0.332-0.16	l0.347-0.153l0.362-0.144l0.375-0.134l0.389-0.125l0.401-0.118l0.413-0.106l0.424-0.099l0.435-0.086l0.444-0.077l0.454-0.064	l0.463-0.054l0.471-0.042l0.479-0.032l0.486-0.019l0.492-0.006c5.295,0,9.578,2.171,9.578,4.848c0,2.686-4.284,4.848-9.578,4.848	C4.285,31.794,0,29.632,0,26.946z"/><path fill="#ffea00" d="M17.695,35.921l0.013-0.262l0.039-0.259l0.064-0.255l0.088-0.251l0.112-0.246l0.136-0.242	l0.158-0.237l0.18-0.231l0.201-0.227l0.222-0.217l0.242-0.214l0.262-0.208l0.28-0.198l0.299-0.192l0.316-0.185l0.333-0.176	l0.349-0.169l0.365-0.16l0.38-0.15l0.394-0.144l0.408-0.131l0.421-0.125l0.434-0.112l0.445-0.102l0.457-0.09l0.467-0.08l0.476-0.07	l0.489-0.054l0.496-0.045l0.502-0.035l0.512-0.019l0.518-0.006c5.554,0,10.066,2.28,10.066,5.093c0,2.81-4.512,5.093-10.066,5.093	C22.198,41.014,17.695,38.733,17.695,35.921z"/><path fill="#03a9f4" d="M21.821,24.759l0.452-0.029l0.445-0.051l0.438-0.07l0.431-0.093l0.423-0.112l0.416-0.131l0.406-0.153	l0.397-0.169l0.387-0.189l0.377-0.205l0.365-0.224l0.355-0.237l0.342-0.256l0.329-0.272l0.317-0.285l0.301-0.297l0.291-0.313	l0.272-0.329l0.259-0.339l0.243-0.352l0.227-0.361l0.208-0.374l0.192-0.387l0.173-0.393l0.157-0.406l0.138-0.413l0.115-0.422	l0.099-0.432l0.077-0.438l0.054-0.444l0.032-0.451l0.013-0.454c0-5.017-4.074-9.091-9.091-9.091c-4.984,0-9.032,4.004-9.091,8.979	c0.117-0.006,0.235-0.006,0.361-0.006c5.016,0,9.091,4.064,9.091,9.091v0.109"/><path fill="#d50000" d="M39.507,33.741l0.441-0.029l0.432-0.048l0.428-0.07l0.419-0.09l0.413-0.112l0.403-0.128l0.397-0.147	l0.387-0.166l0.377-0.182l0.365-0.201l0.358-0.217l0.342-0.23l0.333-0.249l0.32-0.262l0.31-0.278l0.294-0.291l0.278-0.307	l0.269-0.317l0.249-0.333l0.237-0.342l0.221-0.352l0.201-0.365l0.189-0.377l0.169-0.384l0.15-0.393l0.131-0.403l0.115-0.413	l0.093-0.419l0.077-0.425l0.051-0.435l0.032-0.438L48,24.893c0-4.889-3.956-8.854-8.848-8.854c-4.848,0-8.787,3.904-8.845,8.746	c0.115-0.006,0.233-0.006,0.352-0.006c4.88,0,8.848,3.965,8.848,8.854V33.741"/></svg>