<svg xmlns="http://www.w3.org/2000/svg"  viewBox="0 0 48 48" width="48px" height="48px" fill-rule="evenodd" clip-rule="evenodd" baseProfile="basic"><path fill="#4caf50" d="M6.001,38V10c0-2.208,1.791-4,3.999-4h4.601	c-4.041,3.027-6.6,7.505-6.6,12.499c0,5.144,2.713,9.74,6.965,12.767l-0.965,7.733l6.609-4.957c1.997,0.62,4.148,0.957,6.391,0.957	c6.093,0,11.52-2.495,14.999-6.373V38c0,2.208-1.792,3.999-4,3.999H10C7.792,41.999,6.001,40.208,6.001,38z"/><path fill="#4caf50" fill-rule="evenodd" d="M27.001,6.999	c7.728,0,14,5.152,14,11.5s-6.272,11.5-14,11.5c-7.728,0-14-5.152-14-11.5S19.273,6.999,27.001,6.999z" clip-rule="evenodd"/></svg>